<mxfile host="app.diagrams.net" modified="2023-03-17T20:32:56.825Z" agent="5.0 (Windows NT 10.0; Win64; x64) AppleWebKit/537.36 (KHTML, like Gecko) Chrome/111.0.0.0 Safari/537.36" etag="J89JYoEUP2OnKAD7Z2hc" version="21.0.6" type="github">
  <diagram name="Page-1" id="yOXbzh053lruvElYXrSi">
    <mxGraphModel dx="1647" dy="859" grid="1" gridSize="10" guides="1" tooltips="1" connect="1" arrows="1" fold="1" page="1" pageScale="1" pageWidth="1700" pageHeight="1100" background="none" math="0" shadow="0">
      <root>
        <mxCell id="0" />
        <mxCell id="1" parent="0" />
        <mxCell id="tkYp2Oz7mFS3xexXwNvz-5" value="blog-posts:4000" style="swimlane;" vertex="1" parent="1">
          <mxGeometry x="400" y="40" width="200" height="160" as="geometry">
            <mxRectangle x="510" y="230" width="100" height="30" as="alternateBounds" />
          </mxGeometry>
        </mxCell>
        <mxCell id="tkYp2Oz7mFS3xexXwNvz-17" value="GET /posts" style="rounded=0;whiteSpace=wrap;html=1;align=left;" vertex="1" parent="tkYp2Oz7mFS3xexXwNvz-5">
          <mxGeometry y="40" width="120" height="40" as="geometry" />
        </mxCell>
        <mxCell id="tkYp2Oz7mFS3xexXwNvz-18" value="POST /posts" style="rounded=0;whiteSpace=wrap;html=1;align=left;" vertex="1" parent="tkYp2Oz7mFS3xexXwNvz-5">
          <mxGeometry y="100" width="120" height="40" as="geometry" />
        </mxCell>
        <mxCell id="tkYp2Oz7mFS3xexXwNvz-8" value="blog-comments:4001" style="swimlane;" vertex="1" parent="1">
          <mxGeometry x="400" y="240" width="200" height="160" as="geometry">
            <mxRectangle x="510" y="230" width="100" height="30" as="alternateBounds" />
          </mxGeometry>
        </mxCell>
        <mxCell id="tkYp2Oz7mFS3xexXwNvz-10" value="blog-query:4002" style="swimlane;" vertex="1" parent="1">
          <mxGeometry x="400" y="440" width="200" height="160" as="geometry">
            <mxRectangle x="510" y="230" width="100" height="30" as="alternateBounds" />
          </mxGeometry>
        </mxCell>
        <mxCell id="tkYp2Oz7mFS3xexXwNvz-13" value="Event Bus" style="swimlane;" vertex="1" parent="1">
          <mxGeometry x="840" y="40" width="200" height="560" as="geometry">
            <mxRectangle x="510" y="230" width="100" height="30" as="alternateBounds" />
          </mxGeometry>
        </mxCell>
        <mxCell id="tkYp2Oz7mFS3xexXwNvz-15" value="POST /events" style="rounded=0;whiteSpace=wrap;html=1;" vertex="1" parent="tkYp2Oz7mFS3xexXwNvz-13">
          <mxGeometry y="40" width="120" height="40" as="geometry" />
        </mxCell>
        <mxCell id="tkYp2Oz7mFS3xexXwNvz-16" value="POST /events" style="rounded=0;whiteSpace=wrap;html=1;" vertex="1" parent="1">
          <mxGeometry x="680" y="140" width="120" height="40" as="geometry" />
        </mxCell>
        <mxCell id="tkYp2Oz7mFS3xexXwNvz-19" value="blog-ui:3000" style="swimlane;startSize=23;" vertex="1" parent="1">
          <mxGeometry x="40" y="40" width="200" height="160" as="geometry">
            <mxRectangle x="510" y="230" width="100" height="30" as="alternateBounds" />
          </mxGeometry>
        </mxCell>
        <mxCell id="tkYp2Oz7mFS3xexXwNvz-22" value="&lt;b style=&quot;font-size: 15px;&quot;&gt;blog-ui&lt;/b&gt;&lt;br style=&quot;font-size: 15px;&quot;&gt;npx create-react-app blog-ui&lt;br style=&quot;font-size: 15px;&quot;&gt;&lt;br style=&quot;font-size: 15px;&quot;&gt;&lt;b&gt;blog-posts&lt;/b&gt;&lt;br style=&quot;font-size: 15px;&quot;&gt;npm init -y&lt;br style=&quot;font-size: 15px;&quot;&gt;npm install express cors axios nodemon&lt;br style=&quot;font-size: 15px;&quot;&gt;&lt;br&gt;&lt;b&gt;blog-comments&lt;/b&gt;&lt;br&gt;npm init -y&lt;br&gt;npm install express cors axios nodemon" style="text;html=1;align=left;verticalAlign=top;resizable=0;points=[];autosize=1;strokeColor=none;fillColor=none;fontSize=15;" vertex="1" parent="1">
          <mxGeometry x="40" y="235" width="290" height="190" as="geometry" />
        </mxCell>
      </root>
    </mxGraphModel>
  </diagram>
</mxfile>
